HIERARCHY
ROOT Hip
{
	OFFSET 0.000000 0.000000 0.000000 
	CHANNELS 6 Xposition Yposition Zposition Xrotation Yrotation Zrotation
	JOINT LowerSpine
	{
		OFFSET 0.000000 8.345300 -5.129200 
		CHANNELS 3 Xrotation Yrotation Zrotation
		JOINT MiddleSpine
		{
			OFFSET 10.856900 0.000000 0.000000 
			CHANNELS 3 Xrotation Yrotation Zrotation
			JOINT Chest
			{
				OFFSET 15.298400 0.000000 0.000000 
				CHANNELS 3 Xrotation Yrotation Zrotation
				JOINT Neck
				{
					OFFSET 25.661800 -0.598600 0.000000 
					CHANNELS 3 Xrotation Yrotation Zrotation
					JOINT Head
					{
						OFFSET 8.882900 0.000000 0.000000 
						CHANNELS 3 Xrotation Yrotation Zrotation
						End Site
						{
							OFFSET 19.739901 0.000000 0.000000 
						}
					}
				}
				JOINT RClavicle
				{
					OFFSET 23.687799 0.000000 3.158400 
					CHANNELS 3 Xrotation Yrotation Zrotation
					JOINT RShoulder
					{
						OFFSET -15.594500 -3.948000 0.987000 
						CHANNELS 3 Xrotation Yrotation Zrotation
						JOINT RForearm
						{
							OFFSET -31.337000 0.000000 0.197400 
							CHANNELS 3 Xrotation Yrotation Zrotation
							JOINT RHand
							{
								OFFSET -26.402100 0.000000 0.000000 
								CHANNELS 3 Xrotation Yrotation Zrotation
								End Site
								{
									OFFSET -15.791900 -0.987000 0.000000 
								}
							}
						}
					}
				}
				JOINT LClavicle
				{
					OFFSET 23.687799 0.000000 -3.158400 
					CHANNELS 3 Xrotation Yrotation Zrotation
					JOINT LShoulder
					{
						OFFSET -15.594500 -3.948000 -0.987000 
						CHANNELS 3 Xrotation Yrotation Zrotation
						JOINT LForearm
						{
							OFFSET -31.337000 0.000000 -0.197400 
							CHANNELS 3 Xrotation Yrotation Zrotation
							JOINT LHand
							{
								OFFSET -26.402100 0.000000 0.000000 
								CHANNELS 3 Xrotation Yrotation Zrotation
								End Site
								{
									OFFSET -15.791900 -0.987000 0.000000 
								}
							}
						}
					}
				}
			}
		}
	}
	JOINT RThigh
	{
		OFFSET -8.882900 0.448100 0.000000 
		CHANNELS 3 Xrotation Yrotation Zrotation
		JOINT RShin
		{
			OFFSET 43.131599 0.000000 -0.493500 
			CHANNELS 3 Xrotation Yrotation Zrotation
			JOINT RFoot
			{
				OFFSET 0.000000 -44.725601 -0.404700 
				CHANNELS 3 Xrotation Yrotation Zrotation
				JOINT RToe
				{
					OFFSET 0.000000 -3.933200 12.195300 
					CHANNELS 3 Xrotation Yrotation Zrotation
					End Site
					{
						OFFSET 6.772500 0.000000 0.000000 
					}
				}
			}
		}
	}
	JOINT LThigh
	{
		OFFSET 8.882900 0.448100 0.000000 
		CHANNELS 3 Xrotation Yrotation Zrotation
		JOINT LShin
		{
			OFFSET 43.131599 0.000000 0.493500 
			CHANNELS 3 Xrotation Yrotation Zrotation
			JOINT LFoot
			{
				OFFSET 0.000000 -44.725601 0.404700 
				CHANNELS 3 Xrotation Yrotation Zrotation
				JOINT LToe
				{
					OFFSET 0.000000 -3.933200 -12.195300 
					CHANNELS 3 Xrotation Yrotation Zrotation
					End Site
					{
						OFFSET 6.772500 0.000000 0.000000 
					}
				}
			}
		}
	}
}
MOTION
Frames: 10
Frame Time: 0.016949
-26.315599 90.846901 -10.897700 0.953814 0.358920 -2.852389 -89.999992 -90.000000 0.000000 0.354542 -1.382226 0.692484 1.280993 -4.622785 2.387001 0.000000 0.000000 0.000000 0.000000 0.000000 0.000000 90.002892 0.053637 -90.721527 16.482059 17.622009 77.443268 109.024300 83.791840 -109.175301 0.000000 0.000000 0.000000 -90.007896 0.533175 -82.833557 -18.443041 -17.635990 64.395981 -146.749405 -79.322166 -146.546494 0.000000 0.000000 0.000000 56.627029 83.991722 -148.891998 89.892174 11.948200 89.999077 -10.847220 1.148250 0.706969 179.907196 90.000000 0.000000 -84.375809 74.499817 -16.655491 -89.792740 -22.361959 90.017868 6.608409 -0.117880 0.090119 184.835403 -90.000000 0.000000 
-25.062099 90.570198 -10.661800 0.538639 0.805214 -2.684129 -89.999992 -90.000000 0.000000 0.322784 -1.334118 0.641753 1.143712 -4.440436 2.181014 0.000000 0.000000 0.000000 0.000000 0.000000 0.000000 90.001640 0.032113 -90.431908 16.910170 17.823820 76.987030 109.248398 83.783333 -109.398102 0.000000 0.000000 0.000000 -90.009903 0.558040 -82.498466 -18.335449 -19.382450 64.775917 -148.342896 -78.851700 -148.111206 0.000000 0.000000 0.000000 62.296700 83.307114 -155.106400 89.870911 14.251070 90.001556 -11.585480 0.719153 0.463610 179.617905 90.000000 0.000000 -83.987213 75.356537 -16.965281 -89.783577 -23.268530 90.020500 8.673039 -0.259475 0.182183 183.681198 -90.000000 0.000000 
-23.672701 90.267097 -10.659000 0.398171 1.212038 -2.261532 -89.999992 -90.000000 0.000000 0.274335 -1.249915 0.567507 0.964006 -4.155678 1.917678 0.000000 0.000000 0.000000 0.000000 0.000000 0.000000 90.000816 0.016801 -90.225952 16.842350 17.169531 76.709381 113.520500 83.598106 -113.644302 0.000000 0.000000 0.000000 -90.009583 0.554186 -82.550430 -17.851101 -21.360960 65.360123 -149.263306 -78.556824 -149.013702 0.000000 0.000000 0.000000 67.926086 82.287537 -162.098495 89.842430 17.276331 90.006210 -12.229720 0.522317 0.353096 178.929703 90.000000 0.000000 -83.587852 76.574013 -17.969721 -89.769257 -24.661699 90.024887 10.560340 -0.542053 0.349533 182.682999 -90.000000 0.000000 
-22.253700 89.955002 -10.897400 0.527099 1.668322 -1.620647 -89.999992 -90.000000 0.000000 0.208787 -1.122527 0.482346 0.733291 -3.734649 1.625456 0.000000 0.000000 0.000000 0.000000 0.000000 0.000000 90.000397 0.008560 -90.115089 16.240549 16.033710 76.758461 119.331001 83.266060 -119.416702 0.000000 0.000000 0.000000 -90.006706 0.517372 -83.046417 -16.767220 -23.078190 66.610970 -149.404404 -78.509949 -149.151993 0.000000 0.000000 0.000000 72.336769 80.987228 -168.572906 89.807793 20.848419 90.013893 -12.481550 0.170928 0.151959 177.642395 90.000000 0.000000 -83.031464 78.058029 -19.742630 -89.751617 -26.342720 90.030777 12.049180 -0.834034 0.539911 181.925797 -90.000000 0.000000 
-20.860800 89.640999 -11.308100 0.823713 2.046407 -0.854395 -89.999992 -90.000000 0.000000 0.129678 -0.952920 0.400846 0.458382 -3.172648 1.345663 0.000000 0.000000 0.000000 0.000000 0.000000 0.000000 90.000267 0.005846 -90.078682 15.405580 15.517150 76.569519 124.640999 82.864311 -124.688004 0.000000 0.000000 0.000000 -90.002357 0.451434 -83.933990 -15.298430 -24.443970 68.444267 -149.253601 -78.559967 -149.004196 0.000000 0.000000 0.000000 74.166313 79.492104 -172.866302 89.770592 24.530041 90.024498 -12.468030 0.165190 0.134949 176.130493 90.000000 0.000000 -82.060539 79.673714 -22.276951 -89.731819 -28.178631 90.037956 13.052480 -0.952784 0.638730 181.619202 -90.000000 0.000000 
-19.426100 89.336998 -11.867100 1.293010 2.340102 0.046393 -89.999992 -90.000000 0.000000 0.044005 -0.752059 0.334522 0.163706 -2.505433 1.118196 0.000000 0.000000 0.000000 0.000000 0.000000 0.000000 90.000427 0.009152 -90.123131 14.595110 15.632860 75.847221 131.022003 82.219994 -131.015305 0.000000 0.000000 0.000000 -89.998291 0.367175 -85.067093 -13.563050 -25.495371 70.588440 -149.322998 -78.537010 -149.072296 0.000000 0.000000 0.000000 72.166077 77.803543 -173.632507 89.734756 27.904200 90.036903 -12.619950 1.454349 0.868982 175.095093 90.000000 0.000000 -80.126389 81.474586 -25.977659 -89.712227 -29.939421 90.045692 13.559570 -0.813392 0.572874 181.716995 -90.000000 0.000000 
-17.885700 89.050697 -12.518600 1.908788 2.610630 1.034764 -89.999992 -90.000000 0.000000 -0.037751 -0.540986 0.290486 -0.115322 -1.803022 0.968091 0.000000 0.000000 0.000000 0.000000 0.000000 0.000000 90.000397 0.008590 -90.115540 13.838780 15.872580 74.745010 140.035599 80.869766 -139.931900 0.000000 0.000000 0.000000 -89.995796 0.278270 -86.261612 -11.566780 -26.140051 72.838173 -149.772095 -78.385773 -149.512299 0.000000 0.000000 0.000000 68.458122 75.996773 -173.130997 89.696747 31.289080 90.052238 -12.340370 3.222181 1.841295 173.846100 90.000000 0.000000 -76.020119 83.434891 -31.894341 -89.695427 -31.406870 90.052757 13.826650 -0.340152 0.285824 181.774002 -90.000000 0.000000 
-16.345900 88.788902 -13.124200 2.468601 2.749153 1.941392 -89.999992 -90.000000 0.000000 -0.105469 -0.343893 0.269778 -0.345144 -1.146373 0.899226 0.000000 0.000000 0.000000 0.000000 0.000000 0.000000 90.000252 0.005414 -90.072853 12.933350 16.336201 73.576813 149.405197 78.509659 -149.152802 0.000000 0.000000 0.000000 -89.995163 0.196923 -87.354248 -9.467196 -26.168221 74.644211 -150.676605 -78.066650 -150.397797 0.000000 0.000000 0.000000 66.677017 74.528793 -174.957901 89.649162 35.230911 90.074333 -10.211670 3.180112 1.715538 170.845901 90.000000 0.000000 -67.931137 85.239761 -41.478031 -89.682716 -32.490662 90.058388 14.281380 0.457320 -0.221387 181.389801 -90.000000 0.000000 
-14.960900 88.548897 -13.665600 2.912114 2.700407 2.640956 -89.999992 -90.000000 0.000000 -0.153347 -0.179854 0.268079 -0.506247 -0.599491 0.897371 0.000000 0.000000 0.000000 0.000000 0.000000 0.000000 89.999947 -0.000756 -89.989838 11.640800 17.068720 72.528282 156.719696 75.290581 -156.280304 0.000000 0.000000 0.000000 -89.995773 0.130937 -88.240593 -7.551017 -25.701200 75.453270 -152.528793 -77.346207 -152.207504 0.000000 0.000000 0.000000 67.577217 73.695839 -179.454498 89.594757 39.340359 90.103127 -6.425959 0.949487 0.493020 166.396500 90.000000 0.000000 -54.423561 86.587784 -56.201859 -89.671356 -33.437901 90.063599 14.960950 1.263658 -0.744516 180.712906 -90.000000 0.000000 
-13.763200 88.345703 -14.183300 3.346255 2.610202 3.170162 -89.999992 -90.000000 0.000000 -0.181575 -0.058088 0.277964 -0.597925 -0.192690 0.939469 0.000000 0.000000 0.000000 0.000000 0.000000 0.000000 89.999573 -0.008878 -89.880676 10.009650 17.827810 71.590813 161.591400 71.759369 -160.954407 0.000000 0.000000 0.000000 -89.996841 0.083228 -88.881523 -5.946160 -25.034321 75.450104 -155.366394 -76.030357 -154.969101 0.000000 0.000000 0.000000 69.978409 73.204300 175.108597 89.545311 42.719189 90.132156 -2.860176 -1.212128 -0.482554 162.338501 90.000000 0.000000 -33.741810 87.413330 -78.073479 -89.660072 -34.361530 90.068947 15.452210 1.833216 -1.119047 180.257797 -90.000000 0.000000 
